<svg width="125" height="296" viewBox="0 0 125 296" fill="none" xmlns="http://www.w3.org/2000/svg">
<path d="M105.396 229.884C105.396 231.948 105.012 233.592 104.244 234.816C103.476 236.04 102.372 236.916 100.932 237.444C99.492 237.972 97.788 238.236 95.82 238.236L84.912 238.236C82.944 238.236 81.264 237.972 79.872 237.444C78.456 236.916 77.376 236.04 76.632 234.816C75.888 233.592 75.516 231.948 75.516 229.884C75.516 227.772 75.888 226.116 76.632 224.916C77.376 223.692 78.456 222.816 79.872 222.288C81.264 221.736 82.944 221.46 84.912 221.46L95.856 221.46C97.8 221.46 99.492 221.736 100.932 222.288C102.348 222.816 103.452 223.692 104.244 224.916C105.012 226.116 105.396 227.772 105.396 229.884ZM101.472 229.884C101.472 228.996 101.28 228.348 100.896 227.94C100.512 227.508 99.984 227.22 99.312 227.076C98.64 226.932 97.908 226.86 97.116 226.86L83.688 226.86C82.872 226.86 82.14 226.932 81.492 227.076C80.844 227.22 80.34 227.508 79.98 227.94C79.596 228.348 79.404 228.996 79.404 229.884C79.404 230.724 79.596 231.36 79.98 231.792C80.34 232.224 80.844 232.512 81.492 232.656C82.14 232.8 82.872 232.872 83.688 232.872L97.116 232.872C97.908 232.872 98.64 232.812 99.312 232.692C99.984 232.548 100.512 232.26 100.896 231.828C101.28 231.396 101.472 230.748 101.472 229.884ZM105 214.603L79.764 214.603L79.764 219.247L75.84 219.247L75.84 204.703L79.764 204.703L79.764 209.275L105 209.275L105 214.603ZM105 201.978L75.84 201.978L75.84 188.442L79.8 188.442L79.8 196.686L88.08 196.686L88.08 195.534C88.08 193.566 88.356 191.922 88.908 190.602C89.436 189.258 90.324 188.25 91.572 187.578C92.796 186.906 94.452 186.57 96.54 186.57C98.172 186.57 99.54 186.774 100.644 187.182C101.724 187.59 102.588 188.202 103.236 189.018C103.884 189.81 104.34 190.77 104.604 191.898C104.868 193.026 105 194.31 105 195.75L105 201.978ZM101.4 196.686L101.4 195.714C101.4 194.706 101.256 193.89 100.968 193.266C100.68 192.642 100.176 192.186 99.456 191.898C98.712 191.61 97.704 191.478 96.432 191.502C94.92 191.526 93.768 191.838 92.976 192.438C92.184 193.014 91.788 194.13 91.788 195.786L91.788 196.686L101.4 196.686ZM105.396 175.216C105.396 177.28 105.012 178.924 104.244 180.148C103.476 181.372 102.372 182.248 100.932 182.776C99.492 183.304 97.788 183.568 95.82 183.568L84.912 183.568C82.944 183.568 81.264 183.304 79.872 182.776C78.456 182.248 77.376 181.372 76.632 180.148C75.888 178.924 75.516 177.28 75.516 175.216C75.516 173.104 75.888 171.448 76.632 170.248C77.376 169.024 78.456 168.148 79.872 167.62C81.264 167.068 82.944 166.792 84.912 166.792L95.856 166.792C97.8 166.792 99.492 167.068 100.932 167.62C102.348 168.148 103.452 169.024 104.244 170.248C105.012 171.448 105.396 173.104 105.396 175.216ZM101.472 175.216C101.472 174.328 101.28 173.68 100.896 173.272C100.512 172.84 99.984 172.552 99.312 172.408C98.64 172.264 97.908 172.192 97.116 172.192L83.688 172.192C82.872 172.192 82.14 172.264 81.492 172.408C80.844 172.552 80.34 172.84 79.98 173.272C79.596 173.68 79.404 174.328 79.404 175.216C79.404 176.056 79.596 176.692 79.98 177.124C80.34 177.556 80.844 177.844 81.492 177.988C82.14 178.132 82.872 178.204 83.688 178.204L97.116 178.204C97.908 178.204 98.64 178.144 99.312 178.024C99.984 177.88 100.512 177.592 100.896 177.16C101.28 176.728 101.472 176.08 101.472 175.216ZM105 162.851L75.84 162.851L75.84 154.283C75.84 152.531 76.164 151.115 76.812 150.035C77.46 148.931 78.408 148.127 79.656 147.623C80.88 147.095 82.368 146.831 84.12 146.831C86.016 146.831 87.552 147.155 88.728 147.803C89.88 148.451 90.72 149.363 91.248 150.539C91.776 151.691 92.04 153.059 92.04 154.643L92.04 157.523L105 157.523L105 162.851ZM88.296 157.523L88.296 155.507C88.296 154.547 88.164 153.803 87.9 153.275C87.612 152.723 87.168 152.351 86.568 152.159C85.944 151.943 85.116 151.835 84.084 151.835C83.028 151.835 82.176 151.919 81.528 152.087C80.856 152.231 80.364 152.567 80.052 153.095C79.74 153.599 79.584 154.403 79.584 155.507L79.584 157.523L88.296 157.523ZM105.396 135.946C105.396 138.01 105.012 139.654 104.244 140.878C103.476 142.102 102.372 142.978 100.932 143.506C99.492 144.034 97.788 144.298 95.82 144.298L84.912 144.298C82.944 144.298 81.264 144.034 79.872 143.506C78.456 142.978 77.376 142.102 76.632 140.878C75.888 139.654 75.516 138.01 75.516 135.946C75.516 133.834 75.888 132.178 76.632 130.978C77.376 129.754 78.456 128.878 79.872 128.35C81.264 127.798 82.944 127.522 84.912 127.522L95.856 127.522C97.8 127.522 99.492 127.798 100.932 128.35C102.348 128.878 103.452 129.754 104.244 130.978C105.012 132.178 105.396 133.834 105.396 135.946ZM101.472 135.946C101.472 135.058 101.28 134.41 100.896 134.002C100.512 133.57 99.984 133.282 99.312 133.138C98.64 132.994 97.908 132.922 97.116 132.922L83.688 132.922C82.872 132.922 82.14 132.994 81.492 133.138C80.844 133.282 80.34 133.57 79.98 134.002C79.596 134.41 79.404 135.058 79.404 135.946C79.404 136.786 79.596 137.422 79.98 137.854C80.34 138.286 80.844 138.574 81.492 138.718C82.14 138.862 82.872 138.934 83.688 138.934L97.116 138.934C97.908 138.934 98.64 138.874 99.312 138.754C99.984 138.61 100.512 138.322 100.896 137.89C101.28 137.458 101.472 136.81 101.472 135.946ZM105 112.457L92.292 112.457C92.556 113.849 92.688 115.145 92.688 116.345C92.688 117.881 92.436 119.237 91.932 120.413C91.404 121.565 90.624 122.477 89.592 123.149C88.56 123.797 87.288 124.121 85.776 124.121L75.84 124.121L75.84 118.793L85.776 118.793C86.52 118.793 87.168 118.697 87.72 118.505C88.248 118.313 88.656 117.941 88.944 117.389C89.208 116.837 89.34 116.057 89.34 115.049C89.34 114.665 89.328 114.257 89.304 113.825C89.256 113.393 89.184 112.937 89.088 112.457L75.84 112.457L75.84 107.165L105 107.165L105 112.457ZM105 102.627L75.84 102.627L75.84 97.3345L88.044 97.3345L88.044 91.3945L75.84 91.3945L75.84 86.0665L105 86.0665L105 91.3945L91.824 91.3945L91.824 97.3345L105 97.3345L105 102.627ZM105 81.5328L75.84 81.5328L75.84 76.2408L88.08 76.2408L88.08 74.9448C88.08 72.9528 88.356 71.2968 88.908 69.9768C89.436 68.6568 90.324 67.6608 91.572 66.9888C92.796 66.3168 94.452 65.9808 96.54 65.9808C98.172 65.9808 99.54 66.1968 100.644 66.6288C101.724 67.0368 102.588 67.6368 103.236 68.4288C103.884 69.2208 104.34 70.1808 104.604 71.3088C104.868 72.4368 105 73.7208 105 75.1608L105 81.5328ZM101.4 76.2408L101.4 75.1248C101.4 74.1168 101.256 73.3008 100.968 72.6768C100.68 72.0528 100.176 71.5968 99.456 71.3088C98.712 71.0208 97.704 70.8888 96.432 70.9128C94.92 70.9128 93.768 71.2128 92.976 71.8128C92.184 72.4128 91.788 73.5408 91.788 75.1968L91.788 76.2408L101.4 76.2408ZM105 63.2448L75.84 63.2448L75.84 57.9528L105 57.9528L105 63.2448ZM105 53.4078L75.84 53.4078L75.84 49.0518L94.236 49.0518L75.84 41.0598L75.84 37.4958L105 37.4958L105 41.8878L86.316 41.8878L105 49.9158L105 53.4078ZM73.536 45.0198C73.536 46.7478 73.068 48.0558 72.132 48.9438C71.172 49.8078 69.888 50.2398 68.28 50.2398L68.28 47.4318C69.144 47.4318 69.804 47.2518 70.26 46.8918C70.716 46.5318 70.944 45.9078 70.944 45.0198C70.944 44.1558 70.716 43.5438 70.26 43.1838C69.78 42.8238 69.12 42.6438 68.28 42.6438L68.28 39.8358C69.888 39.8358 71.172 40.2798 72.132 41.1678C73.068 42.0318 73.536 43.3158 73.536 45.0198Z" fill="white"/>
<path d="M30.2 238V106.6C29.4 107 27.8 107.6 25.4 108.4C23.1333 109.2 20.6 110 17.8 110.8C15 111.467 12.4 112.133 10 112.8C7.73333 113.467 6.13333 114 5.2 114.4V93.8C7.06667 93.1333 9.4 92.2 12.2 91C15 89.8 17.9333 88.4667 21 87C24.2 85.4 27.1333 83.6667 29.8 81.8C32.6 79.9333 34.8667 78 36.6 76H57.8V238H30.2Z" fill="white"/>
</svg>
