<svg width="149" height="296" viewBox="0 0 149 296" fill="none" xmlns="http://www.w3.org/2000/svg">
<path d="M138.733 235.732L109.573 235.732L109.573 219.676L138.733 219.676L138.733 223.744L112.489 223.744L112.489 231.664L138.733 231.664L138.733 235.732ZM138.733 215.13L109.573 215.13L109.573 207.894C109.573 206.142 109.897 204.75 110.545 203.718C111.169 202.662 112.081 201.894 113.281 201.414C114.481 200.934 115.933 200.694 117.637 200.694C119.173 200.694 120.505 200.97 121.633 201.522C122.761 202.05 123.637 202.842 124.261 203.898C124.861 204.954 125.161 206.274 125.161 207.858L125.161 211.062L138.733 211.062L138.733 215.13ZM122.245 211.062L122.245 209.19C122.245 208.014 122.113 207.09 121.849 206.418C121.585 205.746 121.129 205.266 120.481 204.978C119.809 204.69 118.873 204.546 117.673 204.546C116.281 204.546 115.213 204.654 114.469 204.87C113.725 205.062 113.209 205.482 112.921 206.13C112.633 206.778 112.489 207.786 112.489 209.154L112.489 211.062L122.245 211.062ZM138.733 197.834L109.573 197.834L109.573 186.53L112.597 186.53L112.597 193.766L122.245 193.766L122.245 187.898L125.125 187.898L125.125 193.766L135.817 193.766L135.817 186.458L138.733 186.458L138.733 197.834ZM144.025 185.045L135.817 185.045L135.817 183.713C135.481 183.305 135.073 182.909 134.593 182.525C134.113 182.117 133.489 181.745 132.721 181.409C131.929 181.049 130.921 180.725 129.697 180.437C128.449 180.149 126.889 179.897 125.017 179.681C123.145 179.441 120.877 179.261 118.213 179.141L109.573 178.673L109.573 166.469L135.817 166.469L135.817 163.661L144.025 163.661L144.025 166.793L138.733 167.117L138.733 181.589L144.025 181.913L144.025 185.045ZM135.817 179.933L135.817 170.501L112.597 170.501L112.597 175.217L119.185 175.505C121.777 175.601 123.961 175.757 125.737 175.973C127.489 176.165 128.941 176.405 130.093 176.693C131.221 176.957 132.145 177.269 132.865 177.629C133.561 177.965 134.125 178.337 134.557 178.745C134.989 179.129 135.409 179.525 135.817 179.933ZM138.733 160.675L109.573 160.135L109.573 156.139L133.225 150.991L109.573 145.807L109.573 141.847L138.733 141.307L138.733 144.583L117.565 144.907L138.733 149.839L138.733 152.143L117.565 157.039L138.733 157.363L138.733 160.675ZM138.733 136.837L109.573 136.837L109.573 125.533L112.597 125.533L112.597 132.769L122.245 132.769L122.245 126.901L125.125 126.901L125.125 132.769L135.817 132.769L135.817 125.461L138.733 125.461L138.733 136.837ZM138.733 118.973L112.597 118.973L112.597 123.905L109.573 123.905L109.573 110.117L112.597 110.117L112.597 114.905L138.733 114.905L138.733 118.973ZM138.733 107.306L109.573 107.306L109.573 103.238L122.173 103.238L122.173 95.7502L109.573 95.7502L109.573 91.6822L138.733 91.6822L138.733 95.7502L125.089 95.7502L125.089 103.238L138.733 103.238L138.733 107.306ZM138.733 87.1265L109.573 87.1265L109.573 83.0585L121.705 83.0585L121.705 81.9065C121.705 79.7945 121.957 78.0545 122.461 76.6865C122.941 75.3185 123.793 74.2985 125.017 73.6265C126.241 72.9305 127.969 72.5825 130.201 72.5825C131.713 72.5825 133.009 72.7625 134.089 73.1225C135.145 73.4825 136.021 74.0465 136.717 74.8145C137.413 75.5585 137.929 76.5065 138.265 77.6585C138.577 78.7865 138.733 80.1425 138.733 81.7265L138.733 87.1265ZM135.817 83.0585L135.817 81.7265C135.817 80.5025 135.685 79.5065 135.421 78.7385C135.133 77.9465 134.581 77.3585 133.765 76.9745C132.949 76.5905 131.749 76.3985 130.165 76.3985C128.173 76.3985 126.757 76.7825 125.917 77.5505C125.077 78.3185 124.657 79.7345 124.657 81.7985L124.657 83.0585L135.817 83.0585ZM138.733 69.5585L109.573 69.5585L109.573 65.4905L138.733 65.4905L138.733 69.5585ZM138.733 60.9351L109.573 60.9351L109.573 57.3351L129.769 57.3351L109.573 48.8031L109.573 45.8871L138.733 45.8871L138.733 49.4511L118.213 49.4511L138.733 57.9111L138.733 60.9351ZM107.305 53.0511C107.305 54.7791 106.837 56.0031 105.901 56.7231C104.965 57.4191 103.801 57.7671 102.409 57.7671L102.409 55.5351C103.273 55.5111 103.945 55.3191 104.425 54.9591C104.881 54.5751 105.109 53.9391 105.109 53.0511C105.109 52.1391 104.869 51.5031 104.389 51.1431C103.909 50.7591 103.249 50.5671 102.409 50.5671L102.409 48.2991C103.801 48.2991 104.965 48.6591 105.901 49.3791C106.837 50.0751 107.305 51.2991 107.305 53.0511Z" fill="white"/>
<path d="M7.33655 238V218.4L47.3365 156.6C50.2699 152.067 53.0032 147.733 55.5365 143.6C58.2032 139.467 60.3365 135.2 61.9365 130.8C63.6699 126.267 64.5366 121.333 64.5366 116C64.5366 110 63.4699 105.4 61.3366 102.2C59.2032 99 55.8699 97.4 51.3365 97.4C47.0699 97.4 43.7366 98.6 41.3365 101C38.9365 103.4 37.2699 106.533 36.3365 110.4C35.5365 114.267 35.1365 118.533 35.1365 123.2V130H7.93655V122.8C7.93655 113.2 9.33655 104.8 12.1365 97.6C15.0699 90.2667 19.6699 84.5333 25.9365 80.4C32.2032 76.2667 40.4032 74.2 50.5365 74.2C64.4032 74.2 74.8032 77.9333 81.7366 85.4C88.6699 92.8667 92.1366 103.267 92.1366 116.6C92.1366 123.267 91.2032 129.333 89.3366 134.8C87.4699 140.133 85.0032 145.267 81.9366 150.2C78.8699 155.133 75.5366 160.2 71.9366 165.4L38.7365 215.8H87.9366V238H7.33655Z" fill="white"/>
</svg>
