<svg width="148" height="296" viewBox="0 0 148 296" fill="none" xmlns="http://www.w3.org/2000/svg">
<path d="M135 235.82L105.855 235.82L105.855 218.98L135 218.98L135 224.236L109.635 224.236L109.635 230.564L135 230.564L135 235.82ZM118.248 209.312L118.248 207.607C118.248 206.107 117.955 205.094 117.369 204.566C116.771 204.039 115.682 203.775 114.1 203.775C113.197 203.775 112.5 203.811 112.008 203.881C111.516 203.951 111.07 204.115 110.672 204.373C110.262 204.631 109.98 205.018 109.828 205.533C109.676 206.037 109.6 206.723 109.6 207.59L109.6 209.312L118.248 209.312ZM135 214.621L105.855 214.621L105.855 206.236C105.855 201.268 108.615 198.783 114.135 198.783C116.842 198.783 118.828 199.463 120.094 200.822C121.348 202.182 121.975 204.098 121.975 206.57L121.975 209.312L135 209.312L135 214.621ZM135 195.988L105.855 195.988L105.855 183.789L109.6 183.789L109.6 190.68L117.967 190.68L117.967 185.23L121.711 185.23L121.711 190.68L131.326 190.68L131.326 183.701L135 183.701L135 195.988ZM131.221 176.23L131.221 167.863L109.687 167.863L109.687 171.52L115.893 171.783C117.51 171.854 118.98 171.959 120.305 172.1C121.629 172.229 122.748 172.369 123.662 172.521C124.576 172.662 125.426 172.861 126.211 173.119C126.984 173.377 127.594 173.6 128.039 173.787C128.473 173.963 128.924 174.227 129.393 174.578C129.85 174.918 130.178 175.182 130.377 175.369C130.564 175.557 130.846 175.844 131.221 176.23ZM140.783 182.312L131.221 182.312L131.221 181.152C130.846 180.52 130.342 179.969 129.709 179.5C129.076 179.02 128.168 178.557 126.984 178.111C125.801 177.666 124.213 177.297 122.221 177.004C120.229 176.699 117.826 176.471 115.014 176.318L105.855 175.756L105.855 162.748L131.221 162.748L131.221 159.672L140.783 159.672L140.783 163.451L135 163.803L135 178.076L140.783 178.428L140.783 182.312ZM135 156.842L105.855 156.367L105.855 151.146L125.455 146.699L105.855 142.129L105.855 137.031L135 136.539L135 140.494L116.086 140.775L135 145.258L135 148.053L116.033 152.605L135 152.852L135 156.842ZM135 132.215L105.855 132.215L105.855 120.016L109.6 120.016L109.6 126.906L117.967 126.906L117.967 121.457L121.711 121.457L121.711 126.906L131.326 126.906L131.326 119.928L135 119.928L135 132.215ZM135 114.004L109.775 114.004L109.775 118.891L105.855 118.891L105.855 103.967L109.775 103.967L109.775 108.695L135 108.695L135 114.004ZM135 101.576L105.855 101.576L105.855 96.2676L118.037 96.2676L118.037 90.3437L105.855 90.3437L105.855 85.0352L135 85.0352L135 90.3437L121.816 90.3437L121.816 96.2676L135 96.2676L135 101.576ZM135 62.3242L105.855 62.3242L105.855 57.0156L135 57.0156L135 62.3242ZM131.379 75.2441L131.379 74.3125C131.379 73.5156 131.309 72.8594 131.168 72.3437C131.027 71.8164 130.775 71.3652 130.412 70.9902C130.049 70.6152 129.545 70.3457 128.9 70.1816C128.244 70.0176 127.412 69.9414 126.404 69.9531C124.764 69.9648 123.58 70.293 122.854 70.9375C122.127 71.582 121.764 72.7305 121.764 74.3828L121.764 75.2441L131.379 75.2441ZM135 80.5527L105.855 80.5527L105.855 75.2441L118.055 75.2441L118.055 74.207C118.055 72.6367 118.195 71.3008 118.477 70.1992C118.746 69.0977 119.203 68.1484 119.848 67.3516C120.492 66.5547 121.359 65.9687 122.449 65.5937C123.539 65.207 124.881 65.0137 126.475 65.0137C128.092 65.0137 129.463 65.2187 130.588 65.6289C131.701 66.0391 132.58 66.6602 133.225 67.4922C133.857 68.3242 134.314 69.291 134.596 70.3926C134.865 71.4941 135 72.8066 135 74.3301L135 80.5527ZM103.377 44.5703C103.377 46.3281 102.92 47.6289 102.006 48.4727C101.092 49.3047 99.8496 49.7207 98.2793 49.7207L98.2793 47.2422C99.2402 47.2422 99.9375 47.0254 100.371 46.5918C100.805 46.1582 101.021 45.4844 101.021 44.5703C101.021 43.6562 100.805 42.9824 100.371 42.5488C99.9375 42.1152 99.2402 41.8984 98.2793 41.8984L98.2793 39.4023C99.8496 39.4023 101.092 39.8242 102.006 40.668C102.92 41.5 103.377 42.8008 103.377 44.5703ZM135 52.5332L105.855 52.5332L105.855 48.1211L124.066 48.1211L105.855 40.2109L105.855 36.5898L135 36.5898L135 41.0547L116.437 41.0547L135 48.9824L135 52.5332Z" fill="white"/>
<path d="M7.36703 238V218.4L47.367 156.6C50.3004 152.067 53.0337 147.733 55.567 143.6C58.2337 139.467 60.367 135.2 61.967 130.8C63.7004 126.267 64.567 121.333 64.567 116C64.567 110 63.5004 105.4 61.367 102.2C59.2337 99 55.9004 97.4 51.367 97.4C47.1004 97.4 43.767 98.6 41.367 101C38.967 103.4 37.3004 106.533 36.367 110.4C35.567 114.267 35.167 118.533 35.167 123.2V130H7.96703V122.8C7.96703 113.2 9.36703 104.8 12.167 97.6C15.1004 90.2667 19.7004 84.5333 25.967 80.4C32.2337 76.2667 40.4337 74.2 50.567 74.2C64.4337 74.2 74.8337 77.9333 81.767 85.4C88.7004 92.8667 92.167 103.267 92.167 116.6C92.167 123.267 91.2337 129.333 89.367 134.8C87.5004 140.133 85.0337 145.267 81.967 150.2C78.9004 155.133 75.567 160.2 71.967 165.4L38.767 215.8H87.967V238H7.36703Z" fill="white"/>
</svg>
