<svg width="168" height="296" viewBox="0 0 168 296" fill="none" xmlns="http://www.w3.org/2000/svg">
<path d="M148.675 235.732L119.515 235.732L119.515 230.44L131.755 230.44L131.755 229.36L119.515 224.644L119.515 219.352L133.267 224.896L148.675 218.92L148.675 224.32L135.247 229.36L135.247 230.44L148.675 230.44L148.675 235.732ZM149.071 208.407C149.071 210.471 148.687 212.115 147.919 213.339C147.151 214.563 146.047 215.439 144.607 215.967C143.167 216.495 141.463 216.759 139.495 216.759L128.587 216.759C126.619 216.759 124.939 216.495 123.547 215.967C122.131 215.439 121.051 214.563 120.307 213.339C119.563 212.115 119.191 210.471 119.191 208.407C119.191 206.295 119.563 204.639 120.307 203.439C121.051 202.215 122.131 201.339 123.547 200.811C124.939 200.259 126.619 199.983 128.587 199.983L139.531 199.983C141.475 199.983 143.167 200.259 144.607 200.811C146.023 201.339 147.127 202.215 147.919 203.439C148.687 204.639 149.071 206.295 149.071 208.407ZM145.147 208.407C145.147 207.519 144.955 206.871 144.571 206.463C144.187 206.031 143.659 205.743 142.987 205.599C142.315 205.455 141.583 205.383 140.791 205.383L127.363 205.383C126.547 205.383 125.815 205.455 125.167 205.599C124.519 205.743 124.015 206.031 123.655 206.463C123.271 206.871 123.079 207.519 123.079 208.407C123.079 209.247 123.271 209.883 123.655 210.315C124.015 210.747 124.519 211.035 125.167 211.179C125.815 211.323 126.547 211.395 127.363 211.395L140.791 211.395C141.583 211.395 142.315 211.335 142.987 211.215C143.659 211.071 144.187 210.783 144.571 210.351C144.955 209.919 145.147 209.271 145.147 208.407ZM148.675 196.114L119.515 195.61L119.515 190.102L139.711 185.962L119.515 181.642L119.515 176.314L148.675 175.774L148.675 179.734L128.407 180.166L148.675 184.306L148.675 187.51L128.335 191.722L148.675 192.118L148.675 196.114ZM148.675 172.944L119.515 167.112L119.515 161.424L148.675 155.592L148.675 160.524L141.943 161.676L141.943 166.752L148.675 167.94L148.675 172.944ZM138.559 166.212L138.559 162.252L126.319 164.232L138.559 166.212ZM148.675 152.587L119.515 152.587L119.515 147.295L131.719 147.295L131.719 141.355L119.515 141.355L119.515 136.027L148.675 136.027L148.675 141.355L135.499 141.355L135.499 147.295L148.675 147.295L148.675 152.587ZM154.471 133.222L144.895 133.222L144.895 132.178C144.631 131.698 144.283 131.242 143.851 130.81C143.395 130.354 142.795 129.946 142.051 129.586C141.307 129.226 140.359 128.902 139.207 128.614C138.031 128.302 136.603 128.038 134.923 127.822C133.243 127.582 131.251 127.402 128.947 127.282L119.515 126.634L119.515 113.746L144.895 113.746L144.895 110.686L154.471 110.686L154.471 114.394L148.675 114.718L148.675 129.082L154.471 129.442L154.471 133.222ZM144.895 127.21L144.895 118.786L123.331 118.786L123.331 122.458L129.775 122.782C132.079 122.878 134.035 123.034 135.643 123.25C137.227 123.466 138.547 123.718 139.603 124.006C140.635 124.294 141.475 124.618 142.123 124.978C142.771 125.314 143.299 125.674 143.707 126.058C144.115 126.442 144.511 126.826 144.895 127.21ZM148.675 107.693L119.515 107.693L119.515 102.401L131.719 102.401L131.719 96.4609L119.515 96.4609L119.515 91.1329L148.675 91.1329L148.675 96.4609L135.499 96.4609L135.499 102.401L148.675 102.401L148.675 107.693ZM148.675 86.5992L119.515 86.5992L119.515 81.3072L131.755 81.3072L131.755 80.0112C131.755 78.0192 132.031 76.3632 132.583 75.0432C133.111 73.7232 133.999 72.7272 135.247 72.0552C136.471 71.3832 138.127 71.0472 140.215 71.0472C141.847 71.0472 143.215 71.2632 144.319 71.6952C145.399 72.1032 146.263 72.7032 146.911 73.4952C147.559 74.2872 148.015 75.2472 148.279 76.3752C148.543 77.5032 148.675 78.7872 148.675 80.2272L148.675 86.5992ZM145.075 81.3072L145.075 80.1912C145.075 79.1832 144.931 78.3672 144.643 77.7432C144.355 77.1192 143.851 76.6632 143.131 76.3752C142.387 76.0872 141.379 75.9552 140.107 75.9792C138.595 75.9792 137.443 76.2792 136.651 76.8792C135.859 77.4792 135.463 78.6072 135.463 80.2632L135.463 81.3072L145.075 81.3072ZM148.675 68.3112L119.515 68.3112L119.515 63.0192L148.675 63.0192L148.675 68.3112ZM148.675 58.4742L119.515 58.4742L119.515 54.1182L137.911 54.1182L119.515 46.1262L119.515 42.5622L148.675 42.5622L148.675 46.9542L129.991 46.9542L148.675 54.9822L148.675 58.4742ZM117.211 50.0862C117.211 51.8142 116.743 53.1222 115.807 54.0102C114.847 54.8742 113.563 55.3062 111.955 55.3062L111.955 52.4982C112.819 52.4982 113.479 52.3182 113.935 51.9582C114.391 51.5982 114.619 50.9742 114.619 50.0862C114.619 49.2222 114.391 48.6102 113.935 48.2502C113.455 47.8902 112.795 47.7102 111.955 47.7102L111.955 44.9022C113.563 44.9022 114.847 45.3462 115.807 46.2342C116.743 47.0982 117.211 48.3822 117.211 50.0862Z" fill="white"/>
<path d="M50 240.4C39.8667 240.4 31.6667 238.533 25.4 234.8C19.2667 230.933 14.8 225.533 12 218.6C9.2 211.533 7.8 203.333 7.8 194V188.4H35.2C35.2 188.8 35.2 189.467 35.2 190.4C35.2 191.333 35.2 192.267 35.2 193.2C35.3333 198.267 35.8 202.6 36.6 206.2C37.4 209.8 38.8667 212.533 41 214.4C43.2667 216.267 46.3333 217.2 50.2 217.2C54.3333 217.2 57.4 216.2 59.4 214.2C61.5333 212.2 62.9333 209.267 63.6 205.4C64.4 201.533 64.8 196.933 64.8 191.6C64.8 183.333 63.4667 176.867 60.8 172.2C58.2667 167.4 53.2667 164.8 45.8 164.4C45.5333 164.4 44.8667 164.4 43.8 164.4C42.8667 164.4 42 164.4 41.2 164.4V142.2C41.8667 142.2 42.5333 142.2 43.2 142.2C44 142.2 44.7333 142.2 45.4 142.2C52.7333 142.067 57.8 140.133 60.6 136.4C63.4 132.533 64.8 126.4 64.8 118C64.8 111.2 63.7333 105.867 61.6 102C59.6 98.1333 55.6667 96.2 49.8 96.2C44.0667 96.2 40.2 98.3333 38.2 102.6C36.3333 106.867 35.3333 112.4 35.2 119.2C35.2 120.133 35.2 121.133 35.2 122.2C35.2 123.133 35.2 124.133 35.2 125.2H7.8V117.4C7.8 108.2 9.4 100.4 12.6 94C15.9333 87.4667 20.7333 82.5333 27 79.2C33.2667 75.7333 40.8667 74 49.8 74C59 74 66.7333 75.6667 73 79C79.2667 82.3333 84 87.2 87.2 93.6C90.5333 99.8667 92.2 107.6 92.2 116.8C92.2 126.4 90.2 134.267 86.2 140.4C82.2 146.533 77.0667 150.533 70.8 152.4C75.0667 153.733 78.8 156.067 82 159.4C85.2 162.6 87.6667 166.867 89.4 172.2C91.2667 177.4 92.2 183.733 92.2 191.2C92.2 200.933 90.8 209.533 88 217C85.3333 224.333 80.8667 230.067 74.6 234.2C68.4667 238.333 60.2667 240.4 50 240.4Z" fill="#E9591C"/>
</svg>
