<svg width="25" height="23" viewBox="0 0 25 23" fill="none" xmlns="http://www.w3.org/2000/svg">
<path d="M22.1545 0.00181201C21.8294 0.0161742 21.5263 0.111049 21.2598 0.218766C21.01 0.319301 20.0557 0.728626 18.5526 1.37303C17.0483 2.0182 15.0565 2.87351 12.9317 3.78702C8.68197 5.6148 3.90424 7.67161 1.457 8.72459C1.36516 8.76427 1.04389 8.86669 0.702977 9.13277C0.362442 9.39885 0 9.95027 0 10.5644C0 11.0599 0.236234 11.5521 0.533305 11.8457C0.830375 12.1394 1.14482 12.2845 1.41393 12.3945C2.39131 12.7932 5.42173 14.0333 5.99395 14.2676C6.1954 14.8845 7.29259 18.2403 7.54695 19.0627C7.71438 19.6051 7.87426 19.9452 8.08214 20.2147C8.18607 20.3496 8.30665 20.468 8.4533 20.5606C8.5115 20.5976 8.57575 20.6263 8.64076 20.6524L8.64453 20.6543C8.65964 20.6603 8.67252 20.6705 8.68764 20.6758C8.71598 20.6857 8.73524 20.6871 8.77341 20.6955C8.92573 20.7446 9.07957 20.7756 9.21677 20.7756C9.80184 20.7756 10.1601 20.4532 10.1601 20.4532L10.1817 20.4377L13.1913 17.834L16.842 21.287C16.8934 21.3599 17.3726 22.0176 18.4297 22.0176C19.0575 22.0176 19.5553 21.7027 19.875 21.3671C20.1948 21.0319 20.394 20.6796 20.4786 20.2363V20.2344C20.5576 19.8156 23.9218 2.54506 23.9218 2.54506L23.9161 2.5685C24.0144 2.11873 24.0405 1.70032 23.9316 1.28722C23.8231 0.874118 23.5366 0.478391 23.1817 0.265604C22.8268 0.0528164 22.4795 -0.0121722 22.1545 0.00181201V0.00181201ZM21.9666 2.09188C21.9621 2.12099 21.9704 2.10625 21.9628 2.14064L21.9609 2.15238L21.9591 2.16408C21.9591 2.16408 18.6365 19.2139 18.5136 19.8632C18.5227 19.8145 18.4815 19.9116 18.4396 19.9706C18.3798 19.9297 18.2578 19.8768 18.2578 19.8768L18.2381 19.8557L13.2518 15.1388L9.7266 18.1855L10.7754 13.9864C10.7754 13.9864 17.3314 7.19955 17.7267 6.80459C18.0446 6.48862 18.1115 6.37863 18.1115 6.26941C18.1115 6.12352 18.0351 6.01768 17.8651 6.01768C17.7124 6.01768 17.5064 6.16622 17.3964 6.23652C15.9632 7.15003 9.67182 10.8169 6.85154 12.4572C6.40329 12.2736 3.28971 10.9991 2.23446 10.5682C2.2424 10.5648 2.23977 10.566 2.24808 10.5626C4.6957 9.50959 9.47151 7.4524 13.7208 5.625C15.8453 4.71149 17.8386 3.85542 19.3417 3.21101C20.8218 2.57643 21.8502 2.13951 21.9666 2.09188V2.09188Z" fill="#E9591C"/>
</svg>
