<svg width="22" height="22" viewBox="0 0 22 22" fill="none" xmlns="http://www.w3.org/2000/svg">
<path d="M20.0001 0H1.99975C0.894998 0 0 0.894998 0 1.99975V19.9998C0 21.1049 0.894989 21.9999 2.00012 21.9999H20.0001C21.1053 21.9999 22.0002 21.1049 22.0002 19.9998L21.9999 1.99975C21.9999 0.894998 21.1049 0 20.0001 0ZM17.3609 14.9669L15.493 14.993C15.493 14.993 15.0901 15.072 14.5629 14.708C13.864 14.228 13.2049 12.9789 12.6909 13.1411C12.1701 13.307 12.1859 14.431 12.1859 14.431C12.1859 14.431 12.1901 14.629 12.0711 14.7579C11.9422 14.897 11.689 14.883 11.689 14.883H10.8518C10.8518 14.883 9.00588 15.0361 7.37879 13.3398C5.60695 11.4909 4.0407 7.84178 4.0407 7.84178C4.0407 7.84178 3.94886 7.61161 4.04675 7.49369C4.15787 7.36367 4.45682 7.35949 4.45682 7.35949L6.45694 7.34967C6.45694 7.34967 6.64479 7.38257 6.78086 7.48273C6.89197 7.56474 6.9547 7.71854 6.9547 7.71854C6.9547 7.71854 7.27786 8.53759 7.70684 9.27952C8.54287 10.7256 8.93101 11.0427 9.21485 10.8877C9.62871 10.6617 9.50477 8.84373 9.50477 8.84373C9.50477 8.84373 9.51271 8.18381 9.2969 7.88976C9.12871 7.66072 8.81274 7.59271 8.67479 7.5757C8.56178 7.56058 8.74583 7.29865 8.98583 7.18073C9.34602 7.00461 9.98172 6.99477 10.7327 7.00157C11.3178 7.00762 11.4867 7.04352 11.7147 7.09946C12.4048 7.26651 12.1709 7.91054 12.1709 9.45561C12.1709 9.95073 12.082 10.6466 12.4377 10.8756C12.5915 10.9746 12.9668 10.8907 13.9019 9.29649C14.3467 8.54059 14.6797 7.6524 14.6797 7.6524C14.6797 7.6524 14.7526 7.49443 14.8656 7.4264C14.9817 7.35648 15.1378 7.37838 15.1378 7.37838L17.2426 7.36554C17.2426 7.36554 17.8745 7.28957 17.9777 7.57644C18.0858 7.87653 17.7419 8.57726 16.8816 9.72435C15.4696 11.6084 15.3127 11.4334 16.4855 12.5234C17.6054 13.5643 17.8367 14.0704 17.8757 14.1343C18.339 14.9061 17.3609 14.9669 17.3609 14.9669V14.9669Z" fill="#E9591C"/>
</svg>
